HIERARCHY
ROOT ui
{
	 OFFSET 0 0 0
	 CHANNELS 3 XPosition YPosition Z Position
	 EndSite
	 {
	 OFFSET 0 -1 0
	 }
}
ROOT li
{
	 OFFSET 0 0 0
	 CHANNELS 3 XPosition YPosition Z Position
	 EndSite
	 {
	 OFFSET 0 -1 0
	 }
}
ROOT ul
{
	 OFFSET 0 0 0
	 CHANNELS 3 XPosition YPosition Z Position
	 EndSite
	 {
	 OFFSET 0 -1 0
	 }
}
ROOT ll
{
	 OFFSET 0 0 0
	 CHANNELS 3 XPosition YPosition Z Position
	 EndSite
	 {
	 OFFSET 0 -1 0
	 }
}
ROOT tt
{
	 OFFSET 0 0 0
	 CHANNELS 3 XPosition YPosition Z Position
	 EndSite
	 {
	 OFFSET 0 -1 0
	 }
}
ROOT tb
{
	 OFFSET 0 0 0
	 CHANNELS 3 XPosition YPosition Z Position
	 EndSite
	 {
	 OFFSET 0 -1 0
	 }
}
ROOT td
{
	 OFFSET 0 0 0
	 CHANNELS 3 XPosition YPosition Z Position
	 EndSite
	 {
	 OFFSET 0 -1 0
	 }
}
ROOT v
{
	 OFFSET 0 0 0
	 CHANNELS 3 XPosition YPosition Z Position
	 EndSite
	 {
	 OFFSET 0 -1 0
	 }
}
ROOT bn
{
	 OFFSET 0 0 0
	 CHANNELS 3 XPosition YPosition Z Position
	 EndSite
	 {
	 OFFSET 0 -1 0
	 }
}
MOTION
Frames: 29
Frame Time: 0.002
-0.0011743600368499755	-3.0543699860572813E-4	0		0.435179931640625	-2.28911767578125	0		-1.0628282470703125	-0.019699861526489258	0		-0.8066673583984375	-2.315676025390625	0		1.3197886962890626	-0.5795692749023438	0		3.0506669921875	0.006701275825500488	0		4.59059814453125	0.12793295288085937	0		5.59556201171875	0.11552748870849609	0		-0.10178944396972656	5.93518359375	0		
-0.001427739977836609	-4.1203099489212037E-4	0		0.4349142761230469	-2.2892265625	0		-1.03017431640625	-0.024502840042114258	0		-0.7350772705078125	-2.323310791015625	0		1.337421630859375	-0.5850652465820313	0		3.01533642578125	0.0033248369693756104	0		4.57934814453125	0.12803611755371094	0		5.58212060546875	0.10666991424560547	0		-0.10201105499267578	5.93507763671875	0		
-0.001694368004798889	-5.213710069656372E-4	0		0.43259329223632814	-2.291295166015625	0		-1.0674327392578125	-0.023818315505981444	0		-0.8072120971679687	-2.31588330078125	0		1.316177978515625	-0.5837344970703126	0		3.03589453125	-0.00524622392654419	0		4.57908203125	0.12790235900878907	0		5.5818544921875	0.10653082275390625	0		-0.1022673568725586	5.93396875	0		
-0.0019713339805603027	-6.312649846076966E-4	0		0.4368984375	-2.310509521484375	0		-1.0518626708984375	-0.03126213073730469	0		-0.7587039184570312	-2.326031494140625	0		1.3220457763671876	-0.5769806518554688	0		3.0469560546875	0.010390151977539062	0		4.57608349609375	0.14082984924316405	0		5.58989599609375	0.1212182388305664	0		-0.08634687042236328	5.9415166015625	0		
0.007955440998077393	0.009045009613037109	0		0.41324807739257813	-2.280114990234375	0		-1.0480625	-0.027451486587524415	0		-0.7996276245117188	-2.308265869140625	0		1.32790673828125	-0.570224853515625	0		3.049586181640625	0.006204019069671631	0		4.59568896484375	0.13527410888671876	0		5.5944404296875	0.11297802734375	0		-0.10274771881103516	5.93475146484375	0		
5.195130109786987E-4	0.002090820074081421	0		0.43375286865234375	-2.289667724609375	0		-1.0282275390625	-0.021979583740234374	0		-0.7362393798828125	-2.323728759765625	0		1.3393785400390625	-0.5815891723632812	0		3.014220458984375	0.0028324949741363524	0		4.578234375	0.1275127487182617	0		5.57519970703125	0.11525254821777343	0		-0.10300934600830078	5.93464697265625	0		
-0.0028338630199432374	-9.454860091209411E-4	0		0.40652352905273437	-2.2861953125	0		-1.0685726318359374	-0.024222606658935546	0		-0.8083946533203125	-2.31629248046875	0		1.33600146484375	-0.5856307373046875	0		3.028927001953125	0.002399296998977661	0		4.57311669921875	0.13549784851074217	0		5.57491015625	0.11512875366210938	0		-0.10327513885498046	5.93454638671875	0		
-0.0031236279010772704	-0.0010423309803009033	0		0.4331552734375	-2.289868896484375	0		-1.068862548828125	-0.02431555938720703	0		-0.7727650756835938	-2.320153564453125	0		1.3147357177734376	-0.5842847900390625	0		3.013640625	0.0026113269329071046	0		4.570806640625	0.13442718505859375	0		5.574578125	0.11301199340820313	0		-0.10354322814941407	5.9344501953125	0		
-0.0034106030464172363	-0.0011350950002670288	0		0.43541238403320315	-2.311022216796875	0		-1.0591944580078125	-0.02661782455444336	0		-0.7981603393554687	-2.32470947265625	0		1.3205948486328125	-0.5775112915039062	0		3.0443251953125	8.479170203208923E-4	0		4.58149609375	0.13308549499511718	0		5.57850390625	0.12281396484375	0		-0.08957993316650391	5.94505615234375	0		
0.0034347219467163086	0.004625600814819336	0		0.4346160888671875	-2.288095947265625	0		-1.061283203125	-0.01766299057006836	0		-0.8051900024414063	-2.3126494140625	0		1.3024229736328126	-0.5722205200195313	0		3.016178466796875	0.007347280979156494	0		4.57638720703125	0.14108961486816407	0		5.57822314453125	0.12271057891845703	0		-0.10407676696777343	5.93426904296875	0		
-0.003963418960571289	-0.001308084011077881	0		0.40740963745117187	-2.284605712890625	0		-1.0656180419921875	-0.020659088134765625	0		-0.773623291015625	-2.320413330078125	0		1.3379498291015626	-0.5820738525390625	0		3.052727783203125	-0.001531278967857361	0		4.587814453125	0.12674251556396485	0		5.58373681640625	0.11248844909667968	0		-0.10433575439453124	5.93418505859375	0		
-0.004222012996673584	-0.0013885289430618287	0		0.4579649047851562	-2.2937734375	0		-1.032969482421875	-0.025441057205200197	0		-0.7738857421875	-2.320492431640625	0		1.3136317138671876	-0.5846436767578125	0		3.012542236328125	0.0022360799312591555	0		4.5792802734375	0.11382809448242187	0		5.5735234375	0.11461163330078125	0		-0.10554154968261718	5.93612548828125	0		
-0.004463184833526612	-0.00146528697013855	0		0.4048611145019531	-2.286720947265625	0		-1.0702022705078125	-0.02472697639465332	0		-0.7741296997070313	-2.320568115234375	0		1.33436376953125	-0.586169921875	0		3.012301025390625	0.00215570592880249	0		4.5763173828125	0.1268069076538086	0		5.57323974609375	0.11252864074707031	0		-0.10483985900878906	5.9330283203125	0		
0.020290878295898436	-0.0030716578960418702	0		0.43361257934570313	-2.2884130859375	0		-1.05457421875	-0.032139129638671875	0		-0.7974091186523438	-2.323149169921875	0		1.3014293212890624	-0.5725426635742188	0		3.028249267578125	0.009737150192260742	0		4.5843740234375	0.13955679321289063	0		5.5830185546875	0.11223808288574219	0		-0.08884464263916016	5.94261181640625	0		
0.005336664199829102	0.008176905632019043	0		0.41057415771484373	-2.280992919921875	0		-1.0565740966796875	-0.023167243957519533	0		-0.7575899047851562	-2.323072021484375	0		1.342184814453125	-0.5754866333007812	0		3.014995849609375	0.006945362091064453	0		4.58620263671875	0.1404435272216797	0		5.577041015625	0.122293212890625	0		-0.10522377014160156	5.93388623046875	0		
0.019934642791748048	-0.0032054860591888426	0		0.43325592041015626	-2.288546875	0		-1.0666929931640625	-0.021019161224365233	0		-0.808592529296875	-2.3150498046875	0		1.318962158203125	-0.5780597534179688	0		3.01172607421875	0.0019460469484329224	0		4.58191162109375	0.1344659423828125	0		5.57851416015625	0.10519017791748046	0		-0.10538819885253906	5.9338212890625	0		
-0.0021111741065979006	0.0012025079727172852	0		0.4310783996582031	-2.290564208984375	0		-1.0668292236328125	-0.02108019256591797	0		-0.7389144897460938	-2.32460302734375	0		1.333652099609375	-0.5864381103515625	0		3.01158984375	0.001886628031730652	0		4.57077783203125	0.13464189147949218	0		5.5825263671875	0.11204481506347656	0		-0.1055267333984375	5.9337607421875	0		
-0.005286252021789551	-0.0017895549535751343	0		0.43096807861328124	-2.290620849609375	0		-1.071025390625	-0.025051340103149414	0		-0.81088037109375	-2.317125	0		1.3125667724609376	-0.585046142578125	0		3.026474609375	0.0015116020441055297	0		4.575494140625	0.12648305511474608	0		5.57826611328125	0.10507843017578125	0		-0.10564212036132813	5.93370361328125	0		
-0.005377451896667481	-0.0018427029848098755	0		0.4059910278320312	-2.28514111328125	0		-1.05526953125	-0.03244515609741211	0		-0.772999755859375	-2.318989501953125	0		1.3186241455078125	-0.5782279052734375	0		3.014492919921875	0.006715734004974366	0		4.5747021484375	0.14045159912109376	0		5.5723251953125	0.11215603637695312	0		-0.10573789978027344	5.933650390625	0		
0.0016750340461730957	0.003957005023956299	0		0.4079613342285156	-2.2832333984375	0		-1.06304296875	-0.018328117370605468	0		-0.8069572143554687	-2.313315185546875	0		1.3006614990234375	-0.572893310546875	0		3.030415283203125	0.006327441215515137	0		4.5705009765625	0.13449282836914062	0		5.5764638671875	0.12202381134033204	0		-0.10581713104248047	5.93360107421875	0		
-0.005510552883148194	-0.0019381870031356812	0		0.4327920227050781	-2.288811279296875	0		-1.0671651611328126	-0.021289049148559572	0		-0.7751707763671875	-2.321043212890625	0		1.3154287109375	-0.5812562255859375	0		3.018465576171875	0.011539402008056641	0		4.57044140625	0.1344513854980469	0		5.57640478515625	0.12198334503173829	0		-0.10683918762207031	5.93557568359375	0		
-0.005556636810302734	-0.0019805489778518676	0		0.4307061767578125	-2.29081005859375	0		-1.067211181640625	-0.021332546234130858	0		-0.8209691772460938	-2.309107421875	0		1.312298583984375	-0.5852322387695312	0		3.026204345703125	0.001331855058670044	0		4.58139306640625	0.13417921447753905	0		5.5779951171875	0.10490814971923829	0		-0.10593452453613281	5.9335126953125	0		
-0.005590469837188721	-0.0020192749500274657	0		0.430675048828125	-2.290848388671875	0		-1.0713294677734375	-0.025286270141601563	0		-0.7752454833984375	-2.3211259765625	0		1.3122655029296875	-0.5852694091796875	0		3.01427978515625	0.006551591873168945	0		4.57931640625	0.13218901062011718	0		5.57211181640625	0.11200242614746093	0		-0.10597534942626953	5.9334736328125	0		
-0.005611584186553955	-0.0020538918972015383	0		0.4057693176269531	-2.28535009765625	0		-1.05731103515625	-0.023621427536010743	0		-0.798322265625	-2.32367041015625	0		1.297419189453125	-0.576984130859375	0		3.053463134765625	0.01568663787841797	0		4.57929541015625	0.13216044616699218	0		5.57626025390625	0.11988800048828124	0		-0.08981591796875	5.942095703125	0		
0.00459278392791748	0.00770081901550293	0		0.46273165893554685	-2.287594970703125	0		-1.05142578125	-0.028779514312744142	0		-0.7691401977539063	-2.31532177734375	0		1.321471923828125	-0.5745245971679688	0		3.018357666015625	0.011409226417541505	0		4.57446044921875	0.14024232482910157	0		5.58208154296875	0.11174031829833984	0		-0.10601966857910156	5.9334091796875	0		
0.0015182290077209472	0.0037416200637817383	0		0.4057796630859375	-2.285402587890625	0		-1.0672626953125	-0.0214655704498291	0		-0.7732108154296875	-2.319260986328125	0		1.336308837890625	-0.58286474609375	0		3.011156005859375	0.0015414650440216063	0		4.57034326171875	0.13431210327148438	0		5.57630615234375	0.12185071563720704	0		-0.10601891326904297	5.933384765625	0		
-0.005578911781311035	-0.0021263790130615235	0		0.45663037109375	-2.294506591796875	0		-1.034326171875	-0.026188947677612304	0		-0.7752200317382812	-2.32123779296875	0		1.312280517578125	-0.58536865234375	0		3.014291259765625	0.0064625458717346195	0		4.5703720703125	0.13430084228515626	0		5.57797216796875	0.10480229187011719	0		-0.10599928283691407	5.93336572265625	0		
-0.005528051853179932	-0.0021403939723968505	0		0.403824951171875	-2.287390869140625	0		-1.071266845703125	-0.02541547966003418	0		-0.7751654663085937	-2.3212529296875	0		1.33330615234375	-0.5868281860351563	0		3.02623291015625	0.001198596954345703	0		4.5745498046875	0.14020751953125	0		5.57217333984375	0.11192364501953125	0		-0.10595799255371094	5.9333515625	0		
0.019520254135131837	-0.0036834061145782472	0		0.4328759155273437	-2.2890185546875	0		-1.067107177734375	-0.021513431549072266	0		-0.8001874389648438	-2.32572998046875	0		1.294519287109375	-0.580005859375	0		3.018523193359375	0.011361583709716797	0		4.574625	0.14020458984375	0		5.58224658203125	0.11170899963378907	0		-0.10589192199707032	5.93334130859375	0		
